<?xml version="1.0" encoding="utf-8"?>
<!-- Generator: Adobe Illustrator 24.0.3, SVG Export Plug-In . SVG Version: 6.00 Build 0)  -->
<svg version="1.1" id="Layer_1" xmlns="http://www.w3.org/2000/svg" xmlns:xlink="http://www.w3.org/1999/xlink" x="0px" y="0px"
	 viewBox="0 0 371 100" style="enable-background:new 0 0 371 100;" xml:space="preserve">
<style type="text/css">
	.st0{fill-rule:evenodd;clip-rule:evenodd;fill:transparent;}
	.st1{fill-rule:evenodd;clip-rule:evenodd;fill:white;}
</style>
<g>
	<rect x="0.5" y="0.45" class="st0" width="69.37" height="89.19"/>
	<path class="st1" d="M111.27,48.59c0-1.3-0.4-2.34-1.19-3.11c-0.79-0.77-1.84-1.16-3.14-1.16h-2.85c-1.3,0-2.35,0.39-3.14,1.16
		c-0.79,0.77-1.19,1.81-1.19,3.11v6.11c0,1.46,0.32,2.55,0.95,3.26c0.63,0.71,1.62,1.07,2.96,1.07h3.2c1.5,0,2.61-0.35,3.32-1.04
		c0.71-0.69,1.07-1.79,1.07-3.29V48.59z M104.21,26.41c-1.34,0.04-2.3,0.41-2.88,1.1c-0.57,0.69-0.86,1.75-0.86,3.17v4.86
		c0,1.26,0.37,2.28,1.1,3.05c0.73,0.77,1.65,1.2,2.76,1.27h2.02c1.23,0,2.23-0.4,3.02-1.19c0.79-0.79,1.19-1.84,1.19-3.14v-4.86
		c0-1.5-0.33-2.59-0.98-3.26c-0.65-0.67-1.73-1.01-3.23-1.01H104.21z M116.43,54.1c0,3.28-0.79,5.66-2.37,7.15
		c-1.58,1.48-4.15,2.22-7.71,2.22h-1.66c-3.56,0-6.13-0.74-7.71-2.22c-1.58-1.48-2.37-3.86-2.37-7.15v-4.98
		c0-3.44,1.28-5.87,3.85-7.29c-2.1-1.46-3.14-3.76-3.14-6.88v-3.74c0-3.16,0.83-5.49,2.49-7c1.66-1.5,4.03-2.25,7.12-2.25h1.19
		c3.08,0,5.46,0.75,7.12,2.25c1.66,1.5,2.49,3.83,2.49,7v3.74c0,3.12-1.05,5.42-3.14,6.88c2.57,1.42,3.85,3.85,3.85,7.29V54.1z"/>
	<rect x="122.93" y="42.72" class="st1" width="15.98" height="4.45"/>
	<path class="st1" d="M154.43,38.27c-1.3,0-2.27,0.35-2.91,1.04c-0.63,0.69-0.95,1.43-0.95,2.22v17.49h7.17
		c1.46,0,2.57-0.34,3.32-1.01c0.75-0.67,1.13-1.62,1.13-2.85V42.12c0-1.23-0.38-2.17-1.13-2.85c-0.75-0.67-1.86-1.01-3.32-1.01
		H154.43z M167.23,53.98c0,3.32-0.82,5.73-2.46,7.23c-1.64,1.5-4.18,2.25-7.62,2.25h-11.62V21.96h5.04v13.05
		c1.19-0.79,2.67-1.19,4.45-1.19h2.13c3.48,0,6.03,0.74,7.65,2.22s2.43,3.9,2.43,7.26V53.98z"/>
	<path class="st1" d="M172.2,38.27v-4.45h13.76v25.2h8.78v4.45h-13.82v-25.2H172.2z M186.25,21.96v5.34h-5.63v-5.34H186.25z"/>
	<path class="st1" d="M211.09,63.47c-2.02,0-3.56-0.65-4.63-1.96c-1.07-1.3-1.6-3.02-1.6-5.16V38.27h-5.63v-4.45h5.63v-7.12h5.04
		v7.12h8.66v4.45h-8.66v18.38c0,0.87,0.22,1.48,0.65,1.84c0.43,0.36,1.11,0.53,2.02,0.53h5.99v4.45H211.09z"/>
	<path class="st1" d="M251.21,38.27c-1.3,0-2.27,0.35-2.91,1.04c-0.63,0.69-0.95,1.43-0.95,2.22v17.49h7.17
		c1.46,0,2.57-0.34,3.32-1.01c0.75-0.67,1.13-1.62,1.13-2.85V42.12c0-1.23-0.38-2.17-1.13-2.85c-0.75-0.67-1.86-1.01-3.32-1.01
		H251.21z M247.06,33.82v1.42c1.23-0.95,2.81-1.42,4.74-1.42h2.13c3.48,0,6.03,0.74,7.65,2.22s2.43,3.9,2.43,7.26v10.67
		c0,3.32-0.82,5.73-2.46,7.23c-1.64,1.5-4.18,2.25-7.62,2.25h-6.58v10.08h-5.04V33.82H247.06z"/>
	<path class="st1" d="M274.5,59.02V38.27h-4.33v-4.45h9.07v1.6c1.3-1.07,2.89-1.6,4.74-1.6h6.11v4.74h-6.7
		c-1.27,0-2.21,0.41-2.85,1.22c-0.63,0.81-0.97,1.63-1.01,2.46v16.78H286v4.45h-15.83v-4.45H274.5z"/>
	<path class="st1" d="M312.78,41.83c0-1.03-0.34-1.88-1.01-2.55c-0.67-0.67-1.52-1.01-2.55-1.01h-3.44c-1.42,0-2.42,0.33-2.99,0.98
		c-0.57,0.65-0.86,1.61-0.86,2.88v4.15h10.85V41.83z M306.97,63.47c-3.48,0-6.03-0.74-7.65-2.22s-2.43-3.9-2.43-7.26V43.31
		c0-3.4,0.73-5.83,2.19-7.29c1.46-1.46,3.89-2.19,7.29-2.19h2.79c2.81,0,4.93,0.78,6.37,2.34c1.44,1.56,2.16,3.84,2.16,6.85v7.71
		h-15.77v4.45c0,1.23,0.38,2.17,1.13,2.85c0.75,0.67,1.86,1.01,3.32,1.01h9.43v4.45H306.97z"/>
	<path class="st1" d="M343.42,56.06c0,2.49-0.76,4.35-2.28,5.57c-1.52,1.23-3.73,1.84-6.61,1.84h-8.84v-4.45h9.43
		c1.07,0,1.88-0.23,2.43-0.68c0.55-0.45,0.83-1.12,0.83-1.99v-3.14c0-1.78-0.85-2.67-2.55-2.67h-2.19c-2.77,0-4.83-0.6-6.2-1.81
		c-1.36-1.21-2.05-3.11-2.05-5.72v-1.72c0-2.65,0.75-4.56,2.25-5.72c1.5-1.17,3.72-1.75,6.64-1.75h7.95v4.45h-8.54
		c-0.99,0-1.78,0.23-2.37,0.68c-0.59,0.45-0.89,1.12-0.89,1.99v2.13c0,0.91,0.27,1.58,0.8,2.02c0.53,0.43,1.22,0.65,2.05,0.65h2.02
		c2.65,0,4.66,0.64,6.05,1.93c1.38,1.28,2.08,3.19,2.08,5.72V56.06z"/>
	<path class="st1" d="M370.5,56.06c0,2.49-0.76,4.35-2.28,5.57c-1.52,1.23-3.73,1.84-6.61,1.84h-8.84v-4.45h9.43
		c1.07,0,1.88-0.23,2.43-0.68c0.55-0.45,0.83-1.12,0.83-1.99v-3.14c0-1.78-0.85-2.67-2.55-2.67h-2.19c-2.77,0-4.83-0.6-6.2-1.81
		c-1.36-1.21-2.05-3.11-2.05-5.72v-1.72c0-2.65,0.75-4.56,2.25-5.72c1.5-1.17,3.72-1.75,6.64-1.75h7.95v4.45h-8.54
		c-0.99,0-1.78,0.23-2.37,0.68c-0.59,0.45-0.89,1.12-0.89,1.99v2.13c0,0.91,0.27,1.58,0.8,2.02c0.53,0.43,1.22,0.65,2.05,0.65h2.02
		c2.65,0,4.66,0.64,6.05,1.93c1.38,1.28,2.08,3.19,2.08,5.72V56.06z"/>
	<path class="st1" d="M55.01,54.96c-1.65,0-3.3,0-4.96,0c0,1.65,0,3.3,0,4.96c1.65,0,3.3,0,4.96,0
		C55.01,58.26,55.01,56.61,55.01,54.96z M30.23,64.87c6.61,0,13.21,0,19.82,0c0-1.65,0-3.3,0-4.96c-6.61,0-13.21,0-19.82,0
		C30.23,61.56,30.23,63.21,30.23,64.87z M25.28,54.96c1.65,0,3.3,0,4.96,0c0,1.65,0,3.3,0,4.96c-1.65,0-3.3,0-4.96,0
		C25.28,58.26,25.28,56.61,25.28,54.96z M50.05,20.27c1.65,0,3.3,0,4.96,0c0,4.96,0,9.91,0,14.87c-1.65,0-3.3,0-4.96,0
		C50.05,30.18,50.05,25.22,50.05,20.27z M25.28,20.27c1.65,0,3.3,0,4.96,0c0,4.96,0,9.91,0,14.87c-1.65,0-3.3,0-4.96,0
		C25.28,30.18,25.28,25.22,25.28,20.27z M30.23,79.73c0,1.65,0,3.3,0,4.96c11.56,0,23.12,0,34.69,0c0-1.65,0-3.3,0-4.96
		C53.35,79.73,41.79,79.73,30.23,79.73z M5.46,79.73c0,1.65,0,3.3,0,4.96c4.96,0,9.91,0,14.87,0c0-1.65,0-3.3,0-4.96
		C15.37,79.73,10.41,79.73,5.46,79.73z M15.37,5.4c16.52,0,33.03,0,49.55,0c0,23.12,0,46.25,0,69.37c-16.52,0-33.03,0-49.55,0
		C15.37,51.65,15.37,28.53,15.37,5.4z M5.46,5.4c1.65,0,3.3,0,4.96,0c0,23.12,0,46.25,0,69.37c-1.65,0-3.3,0-4.96,0
		C5.46,51.65,5.46,28.53,5.46,5.4z M0.5,0.45c0,29.73,0,59.46,0,89.19c6.61,0,13.21,0,19.82,0c0,3.3,0,6.61,0,9.91
		c1.65,0,3.3,0,4.96,0c0-1.65,0-3.3,0-4.96c1.65,0,3.3,0,4.96,0c0-1.65,0-3.3,0-4.96c13.21,0,26.43,0,39.64,0
		c0-29.73,0-59.46,0-89.19C46.75,0.45,23.62,0.45,0.5,0.45z"/>
</g>
</svg>
